<?xml version="1.0" standalone="no"?>
<!DOCTYPE svg PUBLIC "-//W3C//DTD SVG 20010904//EN"
 "http://www.w3.org/TR/2001/REC-SVG-20010904/DTD/svg10.dtd">
<svg version="1.0" xmlns="http://www.w3.org/2000/svg"
 width="521.000000pt" height="521.000000pt" viewBox="0 0 521.000000 521.000000"
 preserveAspectRatio="xMidYMid meet">
<metadata>
Created by potrace 1.11, written by Peter Selinger 2001-2013
</metadata>
<g transform="translate(0.000000,521.000000) scale(0.100000,-0.100000)"
fill="#000000" stroke="none">
<path d="M1350 4606 c-58 -40 -292 -198 -520 -351 -541 -364 -505 -337 -506
-366 0 -21 -4 -53 -19 -189 -2 -19 -7 -59 -10 -87 -3 -29 -7 -77 -10 -105 -3
-29 -8 -69 -10 -88 -2 -19 -7 -64 -10 -100 -3 -36 -8 -76 -10 -90 -2 -14 -7
-59 -10 -100 -5 -69 -8 -100 -20 -200 -2 -19 -7 -62 -10 -95 -3 -33 -8 -76
-11 -95 -2 -20 -6 -60 -9 -90 -2 -30 -7 -75 -9 -100 -3 -25 -8 -69 -11 -97 -3
-29 -8 -77 -11 -105 -4 -29 -7 -66 -9 -83 -2 -32 -13 -136 -20 -195 -2 -19 -7
-64 -10 -100 -3 -36 -8 -81 -10 -100 -3 -19 -7 -65 -10 -102 -3 -37 -8 -76
-10 -86 -2 -11 -6 -56 -10 -99 -3 -43 -8 -89 -10 -103 -2 -14 -6 -52 -9 -85
-4 -33 -8 -78 -11 -100 -4 -36 -8 -77 -20 -195 -7 -75 -16 -157 -20 -190 -14
-109 -15 -161 -3 -154 7 4 42 29 78 54 36 26 292 206 570 400 278 194 522 365
542 381 l37 29 88 -61 c48 -33 142 -97 208 -141 66 -45 122 -84 125 -87 3 -3
12 -10 22 -16 17 -10 179 -121 308 -210 41 -29 118 -81 170 -117 52 -36 178
-122 279 -191 101 -70 189 -124 195 -120 14 8 496 333 991 668 311 210 363
245 368 245 3 0 86 -53 184 -118 449 -299 1009 -669 1021 -676 11 -6 12 5 8
55 -5 65 -23 235 -31 299 -3 19 -7 62 -10 96 -3 33 -7 69 -9 80 -2 10 -7 55
-11 99 -4 44 -8 82 -10 85 -1 3 -6 45 -10 94 -4 50 -8 97 -10 105 -1 9 -6 50
-10 91 -4 41 -9 82 -10 90 -1 8 -6 47 -9 85 -4 39 -9 81 -11 95 -2 14 -6 52
-10 85 -3 33 -8 76 -10 95 -2 19 -6 60 -10 90 -3 30 -7 75 -10 100 -3 25 -7
68 -10 95 -2 28 -7 66 -10 85 -2 19 -7 60 -10 90 -12 116 -15 138 -25 235 -6
55 -13 114 -15 130 -2 17 -8 77 -15 135 -11 107 -15 146 -26 235 -6 60 -12
111 -19 185 -3 30 -7 71 -10 90 -2 19 -7 60 -10 90 -13 123 -17 145 -28 156
-10 9 -631 393 -749 463 -15 9 -88 53 -161 99 -74 45 -138 82 -142 82 -7 0
-239 -154 -929 -617 -142 -96 -264 -172 -272 -169 -11 4 -213 153 -224 166 -3
3 -124 95 -270 205 -146 110 -350 264 -454 342 -104 79 -191 143 -195 142 -3
0 -53 -33 -111 -73z"/>
</g>
</svg>
